<?xml version="1.0" encoding="UTF-8" standalone="no"?>
<svg
   width="71.868454mm"
   height="37.948559mm"
   viewBox="0 0 71.868454 37.948559"
   version="1.1"
   id="svg1"
   sodipodi:docname="metricaVentas.svg"
   inkscape:version="1.4 (86a8ad7, 2024-10-11)"
   xmlns:inkscape="http://www.inkscape.org/namespaces/inkscape"
   xmlns:sodipodi="http://sodipodi.sourceforge.net/DTD/sodipodi-0.dtd"
   xmlns="http://www.w3.org/2000/svg"
   xmlns:svg="http://www.w3.org/2000/svg">
  <sodipodi:namedview
     id="namedview1"
     pagecolor="#ffffff"
     bordercolor="#666666"
     borderopacity="1.0"
     inkscape:showpageshadow="2"
     inkscape:pageopacity="0.0"
     inkscape:pagecheckerboard="0"
     inkscape:deskcolor="#d1d1d1"
     inkscape:document-units="mm"
     inkscape:clip-to-page="true"
     inkscape:zoom="2.0334082"
     inkscape:cx="87.291868"
     inkscape:cy="52.375121"
     inkscape:window-width="1920"
     inkscape:window-height="1009"
     inkscape:window-x="-8"
     inkscape:window-y="-8"
     inkscape:window-maximized="1"
     inkscape:current-layer="g4"
     showguides="true" />
  <defs
     id="defs1">
    <filter
       inkscape:collect="always"
       style="color-interpolation-filters:sRGB"
       id="filter4"
       x="-0.034709813"
       y="-0.070083464"
       width="1.0694196"
       height="1.1401669">
      <feGaussianBlur
         inkscape:collect="always"
         stdDeviation="0.80299332"
         id="feGaussianBlur4" />
    </filter>
  </defs>
  <g
     inkscape:label="Layer 1"
     inkscape:groupmode="layer"
     id="layer1"
     transform="translate(-76.668602,-129.58333)">
    <g
       id="g4">
      <rect
         style="mix-blend-mode:normal;fill:#cccccc;stroke:none;stroke-width:1.87391;filter:url(#filter4)"
         id="rect4"
         width="55.522739"
         height="27.498411"
         x="84.841454"
         y="134.8084"
         ry="3.9669511"
         transform="matrix(1.2103731,0,0,1.2103731,-23.6886,-31.252517)" />
      <rect
         style="fill:#ffffff;stroke:none;stroke-width:2.26813"
         id="rect1"
         width="67.203224"
         height="33.283337"
         x="79.001213"
         y="131.91594"
         ry="4.8014908" />
      <circle
         style="fill:#dde9af;stroke:none;stroke-width:1.60123"
         id="path6"
         cx="137.28264"
         cy="138.44293"
         r="4.3423262" />
      <g
         id="g5"
         transform="matrix(0.00942637,0,0,0.00942637,134.86947,136.02977)">
        <path
           class="st0"
           d="m 77.609,448 h 52.781 c 7.516,0 13.609,-6.094 13.609,-13.609 V 315.094 c 0,-7.516 -6.094,-13.609 -13.609,-13.609 H 77.609 C 70.093,301.485 64,307.579 64,315.094 V 434.391 C 64,441.906 70.094,448 77.609,448 Z"
           id="path1"
           style="fill:#000000" />
        <path
           class="st0"
           d="m 197.609,448 h 52.781 c 7.516,0 13.609,-6.094 13.609,-13.609 V 235.094 c 0,-7.516 -6.094,-13.609 -13.609,-13.609 h -52.781 c -7.516,0 -13.609,6.094 -13.609,13.609 v 199.297 c 0,7.515 6.094,13.609 13.609,13.609 z"
           id="path2-1"
           style="fill:#000000" />
        <path
           class="st0"
           d="m 317.609,448 h 52.781 c 7.516,0 13.609,-6.094 13.609,-13.609 V 139.094 c 0,-7.516 -6.094,-13.609 -13.609,-13.609 h -52.781 c -7.516,0 -13.609,6.094 -13.609,13.609 v 295.297 c 0,7.515 6.094,13.609 13.609,13.609 z"
           id="path3-7"
           style="fill:#000000" />
        <path
           class="st0"
           d="m 437.609,448 h 52.781 c 7.516,0 13.609,-6.094 13.609,-13.609 V 43.094 c 0,-7.516 -6.094,-13.609 -13.609,-13.609 H 437.609 C 430.093,29.485 424,35.579 424,43.094 v 391.297 c 0,7.515 6.094,13.609 13.609,13.609 z"
           id="path4-1"
           style="fill:#000000" />
        <path
           class="st0"
           d="M 498.391,482 H 45.609 C 38.094,482 32,475.906 32,468.391 V 13.609 C 32,6.094 25.906,0 18.391,0 H 13.61 C 6.094,0 0,6.094 0,13.609 V 498.39 C 0,505.906 6.094,512 13.609,512 H 498.39 c 7.516,0 13.609,-6.094 13.609,-13.609 V 495.61 C 512,488.094 505.906,482 498.391,482 Z"
           id="path5"
           style="fill:#000000" />
      </g>
      <text
         xml:space="preserve"
         style="font-size:4.12679px;line-height:1.25;font-family:'Open Sans';-inkscape-font-specification:'Open Sans, Semi-Bold';text-align:start;text-anchor:start;fill:#4d4d4d;stroke-width:0.10317;font-weight:600;font-style:normal;font-stretch:normal;font-variant:normal;font-variant-ligatures:normal;font-variant-caps:normal;font-variant-numeric:normal;font-variant-east-asian:normal"
         x="81.208946"
         y="138.58783"
         id="text1"
         inkscape:transform-center-x="-6.4590717"
         inkscape:transform-center-y="-0.055685617"><tspan
           id="tspan1"
           style="text-align:start;text-anchor:start;fill:#4d4d4d;stroke-width:0.10317;-inkscape-font-specification:'Open Sans, Semi-Bold';font-family:'Open Sans';font-weight:600;font-style:normal;font-stretch:normal;font-variant:normal;font-size:4.12679005px;font-variant-ligatures:normal;font-variant-caps:normal;font-variant-numeric:normal;font-variant-east-asian:normal"
           x="81.208946"
           y="138.58783"
           sodipodi:role="line">[Titulo]</tspan></text>
      <text
         xml:space="preserve"
         style="font-style:normal;font-variant:normal;font-weight:bold;font-stretch:normal;font-size:8.4917px;line-height:1.25;font-family:'Open Sans';-inkscape-font-specification:'Open Sans, Bold';font-variant-ligatures:normal;font-variant-caps:normal;font-variant-numeric:normal;font-variant-east-asian:normal;text-align:start;text-anchor:start;fill:#000000;stroke-width:0.212293"
         x="81.340721"
         y="154.79478"
         id="text2"><tspan
           sodipodi:role="line"
           id="tspan2"
           style="font-style:normal;font-variant:normal;font-weight:bold;font-stretch:normal;font-size:8.4917px;font-family:'Open Sans';-inkscape-font-specification:'Open Sans, Bold';font-variant-ligatures:normal;font-variant-caps:normal;font-variant-numeric:normal;font-variant-east-asian:normal;text-align:start;text-anchor:start;fill:#000000;stroke-width:0.212293"
           x="81.340721"
           y="154.79478">[Valor]</tspan></text>
      <text
         xml:space="preserve"
         style="font-size:4.23798px;line-height:1.25;font-family:'Open Sans';-inkscape-font-specification:'Open Sans';text-align:start;text-anchor:start;fill:#008000;stroke-width:0.10595"
         x="81.106598"
         y="161.19769"
         id="text3"><tspan
           sodipodi:role="line"
           id="tspan3"
           style="text-align:start;text-anchor:start;fill:#008000;stroke-width:0.10595"
           x="81.106598"
           y="161.19769">[Comparativo]</tspan></text>
    </g>
  </g>
</svg>
