<?xml version="1.0" encoding="utf-8"?>

<!DOCTYPE svg PUBLIC "-//W3C//DTD SVG 1.1//EN" "http://www.w3.org/Graphics/SVG/1.1/DTD/svg11.dtd">
<!-- Uploaded to: SVG Repo, www.svgrepo.com, Generator: SVG Repo Mixer Tools -->
<svg version="1.1" id="_x32_" xmlns="http://www.w3.org/2000/svg" xmlns:xlink="http://www.w3.org/1999/xlink" 
	 width="800px" height="800px" viewBox="0 0 512 512"  xml:space="preserve">
<style type="text/css">
<![CDATA[
	.st0{fill:#000000;}
]]>
</style>
<g>
	<path class="st0" d="M77.609,448h52.781c7.516,0,13.609-6.094,13.609-13.609V315.094c0-7.516-6.094-13.609-13.609-13.609H77.609
		c-7.516,0-13.609,6.094-13.609,13.609v119.297C64,441.906,70.094,448,77.609,448z"/>
	<path class="st0" d="M197.609,448h52.781c7.516,0,13.609-6.094,13.609-13.609V235.094c0-7.516-6.094-13.609-13.609-13.609h-52.781
		c-7.516,0-13.609,6.094-13.609,13.609v199.297C184,441.906,190.094,448,197.609,448z"/>
	<path class="st0" d="M317.609,448h52.781c7.516,0,13.609-6.094,13.609-13.609V139.094c0-7.516-6.094-13.609-13.609-13.609h-52.781
		c-7.516,0-13.609,6.094-13.609,13.609v295.297C304,441.906,310.094,448,317.609,448z"/>
	<path class="st0" d="M437.609,448h52.781c7.516,0,13.609-6.094,13.609-13.609V43.094c0-7.516-6.094-13.609-13.609-13.609h-52.781
		c-7.516,0-13.609,6.094-13.609,13.609v391.297C424,441.906,430.094,448,437.609,448z"/>
	<path class="st0" d="M498.391,482H45.609C38.094,482,32,475.906,32,468.391V13.609C32,6.094,25.906,0,18.391,0h-4.781
		C6.094,0,0,6.094,0,13.609v484.781C0,505.906,6.094,512,13.609,512h484.781c7.516,0,13.609-6.094,13.609-13.609v-2.781
		C512,488.094,505.906,482,498.391,482z"/>
</g>
</svg>