<?xml version="1.0" ?><!-- Uploaded to: SVG Repo, www.svgrepo.com, Generator: SVG Repo Mixer Tools -->
<svg width="800px" height="800px" viewBox="0 0 50 50" data-name="Layer 1" id="Layer_1" xmlns="http://www.w3.org/2000/svg"><defs><style>.cls-1{fill:#231f20;}.cls-2{fill:#ffba50;}.cls-3{fill:#ff8e5a;}.cls-4{fill:#7cc05b;}.cls-5{fill:#8d7f89;}.cls-6{fill:#00a1d3;}</style></defs><title/><path class="cls-1" d="M43.554,38.866l1.939-11.227a.488.488,0,0,0-.048-.293.339.339,0,0,0-.018-.039.374.374,0,0,0-.045-.067.491.491,0,0,0-.4-.218H26.22l-.635-3.674a1.654,1.654,0,0,0-1.633-1.376H20.763a1.442,1.442,0,0,0-1.441,1.441v.392a1.442,1.442,0,0,0,1.441,1.441H24.9l2.433,14.085a3.483,3.483,0,0,0,1.205,2.089,2.142,2.142,0,1,0,2.674.808h8.384a2.113,2.113,0,0,0-.334,1.136,2.136,2.136,0,1,0,3.73-1.407.492.492,0,0,0,.062-.229.5.5,0,0,0-.5-.5H30.771a2.481,2.481,0,0,1-2.421-1.939H43.06A.459.459,0,0,0,43.554,38.866ZM39.52,30.975H43.9l-.309,1.794a.5.5,0,0,0-.115-.023H39.3Zm-.349,2.771h4.253l-.306,1.772H38.949Zm-11.844-1a.489.489,0,0,0-.115.023l-.31-1.794H31.31l.217,1.771Zm.054,1H31.65l.217,1.772h-4.18Zm.785,4.543-.306-1.771h4.129l.217,1.771Zm9.426,0H33.213L33,36.518h4.819Zm.349-2.77H32.874l-.217-1.772h5.506Zm.348-2.772H32.534l-.217-1.771h6.2Zm4.352,5.542H38.6l.223-1.77h4.123Z"/><path class="cls-1" d="M23.44,35.2H23.1a1.384,1.384,0,0,0,.071-.419V33.5a1.412,1.412,0,0,0-1.411-1.41h-5.19a6.343,6.343,0,1,0-9.757,2.164,6.34,6.34,0,0,0,7.262,10.351,1.411,1.411,0,0,0,1.309.891H23.44a1.412,1.412,0,0,0,1.41-1.41V42.814a1.412,1.412,0,0,0-1.41-1.41H23.1a1.408,1.408,0,0,0,.07-.418V39.711a1.408,1.408,0,0,0-.07-.418h.341a1.412,1.412,0,0,0,1.41-1.41V36.607A1.412,1.412,0,0,0,23.44,35.2Z"/><path class="cls-2" d="M5.5,39.153A5.347,5.347,0,1,1,10.847,44.5,5.354,5.354,0,0,1,5.5,39.153Z"/><path class="cls-2" d="M23.85,42.814V44.09a.411.411,0,0,1-.41.41H15.382a.411.411,0,0,1-.411-.41.494.494,0,0,0-.02-.1A6.374,6.374,0,0,0,16.288,42.4H23.44A.411.411,0,0,1,23.85,42.814Z"/><path class="cls-1" d="M10.847,34.7A4.449,4.449,0,1,0,15.3,39.153,4.454,4.454,0,0,0,10.847,34.7Z"/><path class="cls-3" d="M10.847,42.6A3.449,3.449,0,1,1,14.3,39.153,3.453,3.453,0,0,1,10.847,42.6Z"/><path class="cls-3" d="M16.774,41.4a6.284,6.284,0,0,0,.413-2.1h4.571a.41.41,0,0,1,.411.41v1.275a.41.41,0,0,1-.411.41c-.013,0-.025.007-.038.008Z"/><path class="cls-1" d="M11.026,38.651l-.361,0a.414.414,0,0,1,0-.828h1.067a.5.5,0,0,0,0-1h-.385v-.4a.5.5,0,0,0-1,0v.438a1.412,1.412,0,0,0,.321,2.789l.362,0a.414.414,0,0,1,0,.828H9.962a.5.5,0,0,0,0,1h.385v.4a.5.5,0,0,0,1,0V41.44a1.412,1.412,0,0,0-.321-2.789Z"/><path class="cls-2" d="M5.5,29.369a5.347,5.347,0,1,1,8.515,4.292,6.295,6.295,0,0,0-6.335,0A5.325,5.325,0,0,1,5.5,29.369Z"/><path class="cls-1" d="M16.974,16.381a3.3,3.3,0,0,0,2.794-1.561l6.583,2.743a3.305,3.305,0,1,0,6.01-1.1L39.932,10.2a3.424,3.424,0,1,0-.609-.795l-7.632,6.311a3.26,3.26,0,0,0-4.975.917L20.161,13.9a3.3,3.3,0,1,0-3.187,2.482Z"/><path class="cls-4" d="M42.2,5.5a2.3,2.3,0,1,1-2.3,2.3A2.306,2.306,0,0,1,42.2,5.5Z"/><path class="cls-4" d="M29.585,15.934a2.3,2.3,0,1,1-2.3,2.3A2.306,2.306,0,0,1,29.585,15.934Z"/><path class="cls-4" d="M16.974,10.773a2.3,2.3,0,1,1-2.3,2.3A2.306,2.306,0,0,1,16.974,10.773Z"/><path class="cls-5" d="M20.763,24.246a.442.442,0,0,1-.441-.441v-.392a.442.442,0,0,1,.441-.441h3.189a.657.657,0,0,1,.648.546l.126.728Z"/><path class="cls-6" d="M29.409,44.5a1.136,1.136,0,1,1,1.136-1.136A1.137,1.137,0,0,1,29.409,44.5Z"/><circle class="cls-6" cx="41.396" cy="43.364" r="1.136"/><polygon class="cls-5" points="44.412 28.022 44.075 29.975 26.73 29.975 26.392 28.022 44.412 28.022"/><path class="cls-3" d="M21.758,33.094a.41.41,0,0,1,.411.41v1.274a.411.411,0,0,1-.411.411c-.013,0-.025.007-.038.008H15.8a6.325,6.325,0,0,0-.919-.939,6.4,6.4,0,0,0,1.1-1.164Z"/><path class="cls-2" d="M23.85,37.883a.411.411,0,0,1-.41.41H21.758c-.013,0-.025.007-.038.008H17.13a6.3,6.3,0,0,0-.67-2.1h6.98a.411.411,0,0,1,.41.41Z"/></svg>