<?xml version="1.0" encoding="utf-8"?>

<!DOCTYPE svg PUBLIC "-//W3C//DTD SVG 1.1//EN" "http://www.w3.org/Graphics/SVG/1.1/DTD/svg11.dtd">
<!-- Uploaded to: SVG Repo, www.svgrepo.com, Generator: SVG Repo Mixer Tools -->
<svg version="1.1" id="_x32_" xmlns="http://www.w3.org/2000/svg" xmlns:xlink="http://www.w3.org/1999/xlink" 
	 width="800px" height="800px" viewBox="0 0 512 512"  xml:space="preserve">
<style type="text/css">
<![CDATA[
	.st0{fill:#000000;}
]]>
</style>
<g>
	<polygon class="st0" points="511.5,155.688 511.625,183.531 183.625,425.063 0.5,330.422 0.375,305.281 183.5,398.797 	"/>
	<polygon class="st0" points="511.844,220.203 512,248.031 184,489.594 0.859,394.938 0.734,369.781 183.875,463.313 	"/>
	<path class="st0" d="M331.094,121.922c1.219-0.891,2.656-1.609,4.188-2.141c1.516-0.531,3.156-0.891,4.781-1.063
		c1.625-0.156,3.266-0.125,4.813,0.094c1.547,0.234,3,0.672,4.281,1.313s2.25,1.438,2.906,2.313
		c0.672,0.875,1.031,1.844,1.063,2.844s-0.234,2.031-0.828,3.047c-0.594,1-1.484,1.984-2.719,2.875
		c-1.203,0.891-2.625,1.609-4.141,2.141c-1.531,0.531-3.156,0.891-4.781,1.063c-1.625,0.156-3.281,0.125-4.813-0.094
		c-1.563-0.234-3.031-0.672-4.313-1.313c-1.281-0.625-2.25-1.438-2.906-2.313s-1-1.844-1.031-2.859
		c-0.031-1,0.219-2.047,0.813-3.047S329.891,122.813,331.094,121.922z"/>
	<path class="st0" d="M162.813,244.844c1.219-0.891,2.625-1.609,4.156-2.156c1.531-0.531,3.172-0.875,4.813-1.047
		s3.281-0.141,4.844,0.094s3.016,0.672,4.281,1.297c1.281,0.656,2.25,1.453,2.906,2.344s1,1.875,1.031,2.875
		c0.031,1.016-0.25,2.063-0.844,3.063c-0.594,1.016-1.5,2-2.719,2.891c-1.234,0.891-2.656,1.625-4.188,2.172
		c-1.531,0.531-3.156,0.891-4.781,1.047c-1.656,0.172-3.281,0.141-4.844-0.109c-1.563-0.219-3.016-0.656-4.313-1.313
		c-1.266-0.641-2.219-1.438-2.875-2.328s-1-1.859-1.047-2.859c-0.047-1.016,0.234-2.063,0.828-3.063
		C160.656,246.719,161.563,245.734,162.813,244.844z"/>
	<path class="st0" d="M0,262.219L329.188,22.406L512,113.859L182.703,355.156L0,262.219z M438.875,102.453l-77.703-38.922
		c-4.328,2.375-9.094,4.266-14.047,5.672c-4.969,1.422-10.141,2.344-15.313,2.766c-5.156,0.406-10.328,0.328-15.281-0.297
		c-4.938-0.609-9.688-1.766-14-3.453l-85.219,62.125c8.25-1.797,16.859-2.922,25.625-3.359c8.766-0.422,17.672-0.172,26.5,0.766
		c8.813,0.938,17.563,2.594,25.953,4.938c8.406,2.344,16.484,5.406,23.984,9.188c7.531,3.781,14,8.031,19.375,12.625
		c5.375,4.578,9.656,9.5,12.844,14.594s5.25,10.375,6.172,15.688c0.922,5.328,0.703,10.688-0.688,15.953l85.234-62.422
		c-3.563-2.25-6.328-4.875-8.266-7.719c-1.953-2.844-3.063-5.906-3.359-9.063c-0.297-3.172,0.234-6.438,1.594-9.641
		C433.656,108.656,435.844,105.469,438.875,102.453 M209.781,308.609l85.719-62.781c-8.281,1.813-16.922,2.938-25.719,3.359
		c-8.797,0.438-17.75,0.172-26.594-0.781c-8.844-0.969-17.609-2.641-26.031-5.016s-16.516-5.469-24.031-9.266
		c-7.516-3.813-13.969-8.078-19.313-12.672s-9.625-9.516-12.781-14.609c-3.125-5.094-5.172-10.391-6.063-15.703
		c-0.891-5.328-0.641-10.672,0.781-15.922l-85.703,62.484c3.547,2.266,6.297,4.891,8.203,7.734c1.906,2.859,2.969,5.953,3.219,9.125
		c0.266,3.188-0.313,6.469-1.719,9.719c-1.406,3.234-3.625,6.438-6.688,9.484l77.656,39.484c4.375-2.391,9.156-4.313,14.156-5.734
		c5.016-1.422,10.219-2.359,15.438-2.766c5.203-0.422,10.406-0.328,15.391,0.313C200.688,305.688,205.438,306.875,209.781,308.609
		 M304.063,202.438l-19.453-9.813l24.984-18.266l-1.906-0.953l-12.25-6.156l-25.016,18.219l-9.438-4.75l-1.516-3.797L282,160.469
		l-2.813-1.406l-8.594-4.344l-2.859-1.438L254,163.313l-7.172-17.703l-1.766,1.281l-11.375,8.297l-1.75,1.281l9.656,24.078
		l-40.719-1.406l-1.766,1.281l-11.391,8.313l-1.781,1.297L216,191.063l-13.781,10.047l2.859,1.453l8.609,4.344l2.813,1.406
		l22.563-16.469l6.406,0.203l9.438,4.766l-25.031,18.281l12.313,6.203l1.875,0.953l25.031-18.281l19.469,9.813L304.063,202.438"/>
</g>
</svg>